<svg width="12" height="15" viewBox="0 0 10 13" fill="none" xmlns="http://www.w3.org/2000/svg">
<path d="M0.751292 5.83335H8.44929C9.02396 5.83335 9.32929 5.15335 8.94729 4.72335L5.09863 0.393345C5.0362 0.322882 4.95953 0.266468 4.87368 0.227833C4.78783 0.189198 4.69477 0.16922 4.60063 0.16922C4.50649 0.16922 4.41342 0.189198 4.32757 0.227833C4.24172 0.266468 4.16505 0.322882 4.10262 0.393345L0.252625 4.72335C-0.129375 5.15335 0.175959 5.83335 0.751292 5.83335ZM4.10196 12.606C4.16439 12.6765 4.24106 12.7329 4.3269 12.7715C4.41275 12.8102 4.50582 12.8301 4.59996 12.8301C4.6941 12.8301 4.78717 12.8102 4.87301 12.7715C4.95886 12.7329 5.03553 12.6765 5.09796 12.606L8.94662 8.27601C9.32929 7.84668 9.02396 7.16668 8.44863 7.16668H0.751292C0.176625 7.16668 -0.128708 7.84668 0.253292 8.27668L4.10196 12.606Z" fill="#9E9E9E"/>
</svg>
